<?xml version="1.0" encoding="utf-8"?>
<!-- Generator: Adobe Illustrator 26.0.1, SVG Export Plug-In . SVG Version: 6.00 Build 0)  -->
<svg version="1.1" id="Layer_1" xmlns="http://www.w3.org/2000/svg" xmlns:xlink="http://www.w3.org/1999/xlink" x="0px" y="0px"
	 viewBox="0 0 1920 1080" style="enable-background:new 0 0 1920 1080;" xml:space="preserve">
<style type="text/css">
	.st0{fill:#333333;}
</style>
<path class="st0" d="M1007.09,549.32L900.18,442.41c-1.91-1.91-1.91-5.02,0-6.93l5.8-5.8c1.91-1.91,5.02-1.91,6.93,0l106.91,106.91
	c1.91,1.91,1.91,5.02,0,6.93l-5.8,5.8C1012.11,551.23,1009.01,551.23,1007.09,549.32z"/>
<path class="st0" d="M1019.82,543.41L912.91,650.32c-1.91,1.91-5.02,1.91-6.93,0l-5.8-5.8c-1.91-1.91-1.91-5.02,0-6.93
	l106.91-106.91c1.91-1.91,5.02-1.91,6.93,0l5.8,5.8C1021.73,538.39,1021.73,541.49,1019.82,543.41z"/>
</svg>
