<?xml version="1.0" encoding="utf-8"?>
<!-- Generator: Adobe Illustrator 26.0.1, SVG Export Plug-In . SVG Version: 6.00 Build 0)  -->
<svg version="1.1" id="Layer_1" xmlns="http://www.w3.org/2000/svg" xmlns:xlink="http://www.w3.org/1999/xlink" x="0px" y="0px"
	 viewBox="0 0 161 83" style="enable-background:new 0 0 161 83;" xml:space="preserve">
<style type="text/css">
	.st0{fill:#FFFFFF;}
</style>
<path class="st0" d="M156.1,13.9H4.9C2.19,13.9,0,11.71,0,9V0.8C0-1.9,2.19-4.1,4.9-4.1h151.2c2.71,0,4.9,2.19,4.9,4.9V9
	C161,11.71,158.81,13.9,156.1,13.9z"/>
<path class="st0" d="M156.1,50.9H4.9C2.19,50.9,0,48.71,0,46v-8.2c0-2.71,2.19-4.9,4.9-4.9h151.2c2.71,0,4.9,2.19,4.9,4.9V46
	C161,48.71,158.81,50.9,156.1,50.9z"/>
<path class="st0" d="M156.1,87.9H4.9C2.19,87.9,0,85.71,0,83v-8.2c0-2.71,2.19-4.9,4.9-4.9h151.2c2.71,0,4.9,2.19,4.9,4.9V83
	C161,85.71,158.81,87.9,156.1,87.9z"/>
</svg>
