<?xml version="1.0" encoding="utf-8"?>
<!-- Generator: Adobe Illustrator 26.0.1, SVG Export Plug-In . SVG Version: 6.00 Build 0)  -->
<svg version="1.1" id="Layer_1" xmlns="http://www.w3.org/2000/svg" xmlns:xlink="http://www.w3.org/1999/xlink" x="0px" y="0px"
	 viewBox="0 0 106.78 122.55" style="enable-background:new 0 0 106.78 122.55;" xml:space="preserve">
<style type="text/css">
	.st0{fill:none;stroke:#FFFFFF;stroke-width:5;stroke-miterlimit:10;}
	.st1{fill:#FFFFFF;}
</style>
<circle class="st0" cx="53.39" cy="53.39" r="53.39"/>
<g>
	<g>
		<path class="st1" d="M70.34,63.91c-2.13-2.1-4.78-2.1-6.9,0c-1.61,1.6-3.23,3.2-4.81,4.82c-0.43,0.45-0.8,0.54-1.33,0.24
			c-1.04-0.57-2.15-1.03-3.16-1.65c-4.67-2.94-8.59-6.72-12.06-10.98c-1.72-2.11-3.25-4.38-4.32-6.92
			c-0.22-0.51-0.18-0.85,0.24-1.27c1.61-1.56,3.18-3.16,4.77-4.76c2.21-2.22,2.21-4.82-0.01-7.06c-1.26-1.27-2.52-2.52-3.78-3.79
			c-1.3-1.3-2.59-2.62-3.9-3.9c-2.13-2.07-4.78-2.07-6.9,0.01c-1.63,1.6-3.18,3.24-4.84,4.81c-1.53,1.45-2.3,3.23-2.47,5.3
			c-0.26,3.37,0.57,6.56,1.73,9.66c2.38,6.42,6.02,12.13,10.42,17.36c5.95,7.07,13.05,12.67,21.36,16.71
			c3.74,1.82,7.62,3.21,11.83,3.44c2.9,0.16,5.42-0.57,7.44-2.83c1.38-1.54,2.94-2.95,4.4-4.43c2.17-2.2,2.18-4.85,0.03-7.02
			C75.51,69.06,72.92,66.48,70.34,63.91z"/>
		<path class="st1" d="M67.75,53.11l5-0.85c-0.79-4.59-2.95-8.75-6.25-12.06c-3.48-3.48-7.89-5.68-12.74-6.36l-0.7,5.03
			c3.75,0.53,7.17,2.22,9.86,4.92C65.47,46.33,67.14,49.56,67.75,53.11z"/>
		<path class="st1" d="M75.57,31.37c-5.77-5.77-13.08-9.42-21.14-10.54l-0.7,5.03c6.97,0.98,13.28,4.13,18.27,9.11
			c4.73,4.73,7.83,10.7,8.96,17.28l5-0.85C84.63,43.77,81.04,36.86,75.57,31.37z"/>
	</g>
</g>
</svg>
