<?xml version="1.0" encoding="utf-8"?>
<!-- Generator: Adobe Illustrator 26.0.1, SVG Export Plug-In . SVG Version: 6.00 Build 0)  -->
<svg version="1.1" id="Layer_1" xmlns="http://www.w3.org/2000/svg" xmlns:xlink="http://www.w3.org/1999/xlink" x="0px" y="0px"
	 viewBox="0 0 118.71 226.72" style="enable-background:new 0 0 118.71 226.72;" xml:space="preserve">
<style type="text/css">
	.st0{fill:#333333;}
</style>
<path class="st0" d="M106.91,124.49L0,17.58c-1.91-1.91-1.91-5.02,0-6.93l5.8-5.8c1.91-1.91,5.02-1.91,6.93,0l106.91,106.91
	c1.91,1.91,1.91,5.02,0,6.93l-5.8,5.8C111.93,126.4,108.83,126.4,106.91,124.49z"/>
<path class="st0" d="M119.64,118.58L12.73,225.49c-1.91,1.91-5.02,1.91-6.93,0l-5.8-5.8c-1.91-1.91-1.91-5.02,0-6.93l106.91-106.91
	c1.91-1.91,5.02-1.91,6.93,0l5.8,5.8C121.55,113.56,121.55,116.66,119.64,118.58z"/>
</svg>
