<?xml version="1.0" encoding="utf-8"?>
<!-- Generator: Adobe Illustrator 26.0.1, SVG Export Plug-In . SVG Version: 6.00 Build 0)  -->
<svg version="1.1" id="Layer_1" xmlns="http://www.w3.org/2000/svg" xmlns:xlink="http://www.w3.org/1999/xlink" x="0px" y="0px"
	 viewBox="0 0 1061.61 571.08" style="enable-background:new 0 0 1061.61 571.08;" xml:space="preserve">
<style type="text/css">
	.st0{fill:#FFFFFF;}
</style>
<g>
	<g>
		<path class="st0" d="M365.12,160.34C365.12,48.44,274.16,0,159.52,0H0v323.35h159.05C274.16,323.35,365.12,272.25,365.12,160.34
			 M118.55,249.46V73.34h33.54c57.82,0,91.87,21.48,91.87,86.18c0,64.72-30.62,89.93-91.87,89.93H118.55z"/>
		<polygon class="st0" points="501.81,194.08 591.75,323.35 729.86,323.35 600.29,157.41 730.35,0 591.63,0 501.81,124.27 501.81,0 
			389.08,0 389.08,323.35 501.81,323.35 		"/>
		<polygon class="st0" points="869.27,200.67 947.54,323.35 1071.08,323.35 979.65,192.73 754.66,192.73 754.66,323.35 
			869.27,323.35 		"/>
		<rect x="754.66" y="112.4" class="st0" width="114.62" height="13.04"/>
		<path class="st0" d="M1020.72,172.43H754.66v13.25h244.96C1007.1,182.17,1014.3,177.8,1020.72,172.43"/>
		<path class="st0" d="M869.27,105.33v-34.5h23.04c23.61,0,40.27,11.15,41.98,34.5h116.28v-0.86v-3.68v-4.66
			C1047.27,10.78,971.01,0,904.85,0h-35.57H754.66v105.33v0.03h114.62V105.33z"/>
		<path class="st0" d="M1050.14,111.48H934.29c-0.46,5.32-1.46,9.86-2.93,13.95h116.69
			C1048.94,120.98,1049.79,116.55,1050.14,111.48"/>
		<path class="st0" d="M900.43,145.47h140.74c2.21-4.21,3.97-8.68,5.18-13.7H927.42C921.92,139.67,911.95,144.24,900.43,145.47"/>
		<path class="st0" d="M1037.78,152.13H754.66v13.45h273.41C1031.73,161.21,1035.01,156.96,1037.78,152.13"/>
		<rect x="754.66" y="132.46" class="st0" width="114.62" height="13.05"/>
		<path class="st0" d="M649.06,390.45h-0.16c-0.93,3.45-1.8,7.76-2.78,11.09l-3.62,12.15h13.36l-3.74-12.15
			C651.01,398.14,649.94,393.9,649.06,390.45"/>
		<path class="st0" d="M902.7,390.45h-0.18c-0.91,3.45-1.79,7.76-2.79,11.09l-3.57,12.15h13.34l-3.74-12.15
			C904.66,398.14,903.59,393.9,902.7,390.45"/>
		<path class="st0" d="M547.85,390.05c-3.29,0-5.19,0.18-6.17,0.4v15.78h5.37c6.82,0,10.84-3.24,10.84-8.27
			C557.89,392.8,554.12,390.05,547.85,390.05"/>
		<path class="st0" d="M450.56,390.05c-9.29,0-14.69,8.35-14.69,19.52c0,11.32,5.56,19.19,14.69,19.19c9.26,0,14.54-8.3,14.54-19.47
			C465.1,398.93,459.95,390.05,450.56,390.05"/>
		<path class="st0" d="M0,461.84h1073.99V346.37H0V461.84z M445.37,367.19h10.19l9.08,10.48h-9.6l-4.48-5.32h-0.17l-4.48,5.32h-9.47
			L445.37,367.19z M98.75,431.32c-6.35,5.01-16.11,7.42-27.96,7.42c-7.06,0-12.17-0.46-15.5-0.86v-56.24
			c5.04-0.76,11.61-1.26,18.38-1.26c11.57,0,19.08,2.05,24.83,6.12c6.29,4.45,10.2,11.46,10.2,21.59
			C108.7,419.07,104.49,426.65,98.75,431.32 M150.95,438.12l-4.65-14.68h-17.32l-4.28,14.68h-14.09l18.37-57.31h17.94l18.84,57.31
			H150.95z M222.38,438.12h-14.32l-12.9-22.09c-3.58-6.18-7.61-13.53-10.5-20.28h-0.35c0.46,7.65,0.63,15.79,0.63,25.14v17.23H172.4
			v-57.31h15.94l12.56,21.01c3.58,6.04,7.05,13.17,9.86,19.64h0.21c-0.86-7.57-1.12-15.33-1.12-23.99v-16.66h12.53V438.12z
			 M282.75,438.12h-13.62v-23.98h-22.52v23.98h-13.64v-57.31h13.64v22.05h22.52v-22.05h13.62V438.12z M343.63,438.12l-14.88-24.75
			l-5.11,6.02v18.73H310.1v-57.31h13.54v25.32h0.16c1.35-2.17,2.79-4.21,4.22-6.28l13.63-19.05h16.84l-19.99,24.41l20.99,32.91
			H343.63z M413.63,438.12h-13.62v-23.98h-22.5v23.98h-13.65v-57.31h13.65v22.05h22.5v-22.05h13.62V438.12z M449.84,439.06
			c-17.84,0-28.37-12.84-28.37-29.27c0-17.15,11.64-29.99,29.36-29.99c18.56,0,28.7,13.16,28.7,29.07
			C479.53,427.74,467.59,439.06,449.84,439.06 M500.9,438.12h-13.64v-57.31h13.64V438.12z M559.77,438.12
			c-0.89-1.69-2.45-6.28-4.11-13.35c-1.69-7.26-4.31-9.07-9.98-9.15h-4.01v22.5h-13.56v-56.56c4.4-0.68,10.83-1.18,18.2-1.18
			c8.95,0,15.27,1.26,19.55,4.5c3.68,2.71,5.66,6.82,5.66,12.08c0,7.23-5.5,12.24-10.68,14.01v0.26c4.23,1.64,6.53,5.39,8.08,10.63
			c1.89,6.56,3.66,14.07,4.82,16.26H559.77z M618.52,438.12h-38.5v-57.31h37.21v10.63h-23.57v11.9h22.21v10.55h-22.21v13.6h24.86
			V438.12z M662.5,438.12l-4.65-14.68h-17.3l-4.32,14.68h-14.07l18.39-57.31h17.87l18.87,57.31H662.5z M721.69,438.12h-37.67v-57.31
			h13.63v46.43h24.04V438.12z M783.71,438.12h-38.46v-57.31h37.21v10.63h-23.58v11.9h22.22v10.55h-22.22v13.6h24.83V438.12z
			 M806.49,439c-6.89,0-13.74-1.79-17.1-3.63l2.75-10.6c3.6,1.77,9.33,3.6,15.15,3.6c6.26,0,9.57-2.47,9.57-6.22
			c0-3.58-2.85-5.62-10.08-8.01c-10.06-3.4-16.66-8.66-16.66-17.01c0-9.78,8.66-17.16,22.84-17.16c6.89,0,11.82,1.25,15.4,2.89
			l-3.04,10.39c-2.35-1.14-6.76-2.8-12.51-2.8c-5.97,0-8.86,2.7-8.86,5.56c0,3.66,3.33,5.29,11.25,8.12
			c10.65,3.72,15.56,8.97,15.56,17.09C830.77,430.83,823.06,439,806.49,439 M864.13,438.12h-13.59V391.7h-16.36v-10.9h46.44v10.9
			h-16.49V438.12z M916.15,438.12l-4.69-14.68h-17.31l-4.28,14.68H875.8l18.35-57.31h17.93l18.83,57.31H916.15z M972.01,391.7H955.5
			v46.42h-13.63V391.7h-16.29v-10.9h46.43V391.7z M1016.46,438.12h-38.45v-57.31h37.18v10.63H991.6v11.9h22.25v10.55H991.6v13.6
			h24.86V438.12z"/>
		<path class="st0" d="M75.11,390.35c-2.92,0-5.02,0.25-6.16,0.49v37.51c1.14,0.26,3.12,0.26,4.71,0.26
			c12.48,0.09,20.63-6.4,20.63-20.06C94.3,396.63,86.92,390.35,75.11,390.35"/>
		<path class="st0" d="M137.52,390.45h-0.2c-0.87,3.45-1.79,7.76-2.78,11.09l-3.58,12.15h13.36l-3.78-12.15
			C139.46,398.14,138.41,393.9,137.52,390.45"/>
	</g>
	<g>
		<path class="st0" d="M27.08,563.02l-11.22-31.49l-5.53,9.3v22.18H0v-66.89h10.34v27.77l14.93-27.77h11.12l-14.1,24.39l16.11,42.5
			H27.08z"/>
		<path class="st0" d="M43.73,505.88v-9.75h9.44v9.75H43.73z M43.73,563.02v-49.84h9.44v49.84H43.73z"/>
		<path class="st0" d="M92.4,547.59c0,2.19-0.19,4.29-0.56,6.3c-0.37,2.01-1.33,3.88-2.86,5.61c-1.53,1.76-3.35,2.95-5.46,3.57
			c-2.1,0.62-4.26,0.93-6.48,0.93c-3.14,0-5.71-0.46-7.72-1.35c-2.01-0.9-3.59-2.17-4.74-3.8c-1.17-1.63-1.98-3.59-2.46-5.86
			c-0.47-2.26-0.71-4.8-0.71-7.61v-14.98c0-2.58,0.19-5.09,0.56-7.54c0.38-2.45,1.53-4.64,3.45-6.57c1.54-1.47,3.29-2.52,5.27-3.16
			c1.97-0.63,3.99-0.95,6.05-0.95c2.29,0,4.43,0.35,6.44,1.06c2.01,0.7,3.78,1.88,5.31,3.55c0.95,1.01,1.67,2.09,2.16,3.25
			c0.49,1.16,0.87,2.37,1.15,3.61c0.28,1.24,0.43,2.53,0.47,3.86c0.03,1.34,0.05,2.64,0.05,3.92v8.23H70.71v4.5
			c0,1.21,0.02,2.48,0.07,3.83c0.05,1.33,0.27,2.54,0.67,3.64c0.39,1.09,1.01,2.01,1.88,2.75c0.86,0.73,2.14,1.1,3.84,1.1
			c1.41,0,2.5-0.3,3.31-0.89c0.8-0.58,1.39-1.34,1.79-2.29c0.39-0.95,0.62-1.98,0.68-3.12c0.06-1.12,0.1-2.26,0.1-3.4h9.35V547.59z
			 M80.06,505.05l-3.13-3.38l-3.18,3.38h-8.33l6.32-8.92h10.44l6.31,8.92H80.06z M82.95,528.74c0-1.14-0.07-2.22-0.2-3.23
			c-0.13-1.01-0.43-1.89-0.9-2.67c-0.48-0.76-1.11-1.36-1.92-1.78c-0.8-0.42-1.86-0.64-3.2-0.64c-1.27,0-2.31,0.23-3.11,0.68
			c-0.8,0.46-1.41,1.07-1.84,1.84c-0.42,0.77-0.71,1.65-0.86,2.67c-0.14,1.01-0.22,2.06-0.22,3.13v2.69h12.24V528.74z M74.04,493.79
			l4.6-8.92h9.65l-7.25,8.92H74.04z"/>
		<path class="st0" d="M121.29,563.02v-36.48c0-0.69-0.01-1.36-0.04-2.03c-0.04-0.66-0.17-1.29-0.42-1.86
			c-0.24-0.57-0.61-1.03-1.09-1.39c-0.49-0.36-1.18-0.55-2.06-0.55c-1.53,0-2.95,0.55-4.26,1.64c-1.31,1.1-2.39,2.22-3.23,3.36
			v37.31h-9.45v-49.84h9.45v6.41c1.67-1.93,3.46-3.58,5.39-4.95c1.92-1.37,4.22-2.06,6.9-2.06c1.7,0,3.08,0.33,4.14,1.01
			c1.06,0.66,1.89,1.53,2.5,2.58c0.6,1.07,1,2.29,1.2,3.71c0.19,1.4,0.29,2.81,0.29,4.2v38.93H121.29z"/>
		<path class="st0" d="M184.02,505.68v57.34h-10.33v-57.34h-12.93v-9.55h36.28v9.55H184.02z"/>
		<path class="st0" d="M223.53,563.02c-0.35-0.94-0.59-1.9-0.68-2.86c-0.1-0.96-0.15-1.95-0.15-2.96c-1.6,1.73-3.25,3.25-4.94,4.55
			c-1.7,1.3-3.82,1.96-6.36,1.96c-1.9,0-3.47-0.39-4.73-1.15c-1.26-0.77-2.29-1.8-3.12-3.06c-0.81-1.28-1.38-2.7-1.71-4.27
			c-0.33-1.56-0.49-3.14-0.49-4.75c0-2.21,0.32-4.21,0.96-5.98c0.63-1.76,1.76-3.41,3.35-4.94c2.29-2.15,5-3.92,8.13-5.29
			c3.14-1.37,6.1-2.66,8.91-3.87v-2.6c0-0.84-0.05-1.71-0.14-2.59c-0.1-0.88-0.31-1.65-0.64-2.33c-0.32-0.66-0.82-1.2-1.49-1.58
			c-0.67-0.4-1.54-0.59-2.62-0.59c-2.16,0-3.6,0.72-4.34,2.16c-0.74,1.43-1.14,3.08-1.21,4.94h-9.93c0.42-4.99,2.07-8.78,4.94-11.36
			c2.87-2.58,6.81-3.86,11.8-3.86c1.96,0,3.82,0.25,5.58,0.75c1.77,0.51,3.32,1.54,4.65,3.07c1.4,1.53,2.21,3.25,2.43,5.16
			c0.21,1.91,0.32,3.83,0.32,5.75v22.19c0,2.25,0.03,4.51,0.1,6.78c0.06,2.28,0.39,4.52,0.98,6.73H223.53z M222.7,537.37
			c-1.2,0.59-2.48,1.27-3.82,2.08c-1.34,0.8-2.57,1.72-3.7,2.76c-1.12,1.05-2.07,2.2-2.84,3.47c-0.77,1.28-1.15,2.69-1.15,4.21
			c0,1.4,0.4,2.69,1.2,3.84c0.8,1.16,1.97,1.74,3.51,1.74c1.53,0,2.87-0.45,4.01-1.34c1.14-0.9,2.07-1.95,2.79-3.16V537.37z
			 M214.48,577.81v-8.92h8.71v8.92H214.48z"/>
		<path class="st0" d="M271.96,545.89c0,2.62-0.19,5.13-0.56,7.56c-0.37,2.44-1.53,4.63-3.45,6.58c-1.53,1.54-3.29,2.59-5.26,3.14
			c-1.98,0.56-4.01,0.84-6.1,0.84c-2.12,0-4.15-0.3-6.1-0.89c-1.94-0.58-3.68-1.62-5.21-3.09c-1.96-1.82-3.1-4-3.43-6.53
			c-0.33-2.53-0.49-5.07-0.49-7.61v-15.47c0-1.28,0.01-2.54,0.05-3.8c0.03-1.26,0.18-2.49,0.44-3.7c0.26-1.21,0.66-2.36,1.2-3.48
			c0.54-1.11,1.28-2.16,2.23-3.14c1.53-1.53,3.29-2.59,5.26-3.21c1.98-0.61,3.99-0.91,6.04-0.91c2.16,0,4.2,0.3,6.15,0.91
			c1.94,0.61,3.68,1.68,5.22,3.21c0.98,0.92,1.74,1.94,2.28,3.09c0.54,1.14,0.93,2.32,1.17,3.52c0.25,1.2,0.4,2.44,0.47,3.7
			c0.06,1.26,0.09,2.52,0.09,3.8V545.89z M262.61,529.82c0-1.08-0.07-2.16-0.2-3.25c-0.13-1.1-0.39-2.07-0.81-2.94
			c-0.4-0.86-1.01-1.57-1.8-2.11c-0.81-0.54-1.88-0.81-3.21-0.81c-1.34,0-2.39,0.29-3.16,0.86c-0.77,0.57-1.34,1.3-1.74,2.16
			c-0.4,0.86-0.66,1.83-0.81,2.88c-0.15,1.06-0.22,2.13-0.22,3.21v16.56c0,1.08,0.07,2.14,0.22,3.2c0.15,1.07,0.41,2.04,0.81,2.91
			c0.39,0.89,0.97,1.6,1.74,2.15c0.77,0.56,1.82,0.84,3.16,0.84c1.34,0,2.41-0.26,3.21-0.79c0.79-0.52,1.4-1.22,1.8-2.09
			c0.42-0.88,0.68-1.88,0.81-2.97c0.13-1.09,0.2-2.18,0.2-3.25V529.82z"/>
		<path class="st0" d="M341.06,550.53c-0.59,2.72-1.6,5.07-3.04,7.08c-1.44,2-3.34,3.58-5.68,4.69c-2.34,1.13-5.25,1.7-8.71,1.7
			c-3.16,0-6.01-0.57-8.54-1.7c-2.53-1.12-4.66-3.02-6.39-5.7c-0.88-1.27-1.54-2.64-1.98-4.11c-0.44-1.47-0.76-2.98-0.96-4.55
			c-0.2-1.57-0.3-3.13-0.3-4.68c0-1.54,0-3.08,0-4.62v-18.75c0-1.67,0.02-3.31,0.05-4.9c0.03-1.6,0.16-3.19,0.39-4.75
			c0.23-1.57,0.62-3.1,1.15-4.58c0.54-1.49,1.32-2.93,2.33-4.34c1.66-2.18,3.77-3.75,6.31-4.72c2.55-0.96,5.17-1.45,7.84-1.45
			c3.13,0,5.85,0.53,8.15,1.58c2.3,1.07,4.18,2.52,5.66,4.37c1.47,1.84,2.55,4.03,3.25,6.56c0.7,2.53,1.05,5.26,1.05,8.21v2.01
			h-10.33c0-1.41-0.06-2.86-0.2-4.37c-0.13-1.49-0.46-2.9-1-4.2c-0.54-1.31-1.32-2.38-2.34-3.21c-1.04-0.83-2.44-1.24-4.24-1.24
			c-1.9,0-3.35,0.41-4.38,1.24c-1.03,0.84-1.79,1.88-2.3,3.15c-0.5,1.28-0.8,2.67-0.9,4.17c-0.1,1.49-0.15,2.95-0.15,4.35v22.29
			c0,1.4,0.03,2.94,0.1,4.6c0.06,1.66,0.34,3.2,0.85,4.6c0.5,1.4,1.29,2.6,2.35,3.58c1.06,0.97,2.57,1.45,4.53,1.45
			c1.93,0,3.45-0.49,4.56-1.51c1.11-1.02,1.91-2.26,2.4-3.73c0.49-1.47,0.79-3.07,0.9-4.79c0.11-1.73,0.17-3.3,0.17-4.7h10.28v2.2
			C341.93,544.91,341.64,547.83,341.06,550.53z"/>
		<path class="st0" d="M380.13,545.89c0,2.62-0.19,5.13-0.56,7.56c-0.37,2.44-1.52,4.63-3.45,6.58c-1.54,1.54-3.29,2.59-5.27,3.14
			c-1.97,0.56-4.01,0.84-6.09,0.84c-2.12,0-4.16-0.3-6.1-0.89c-1.94-0.58-3.68-1.62-5.21-3.09c-1.96-1.82-3.11-4-3.43-6.53
			c-0.32-2.53-0.49-5.07-0.49-7.61v-15.47c0-1.28,0.01-2.54,0.05-3.8c0.04-1.26,0.18-2.49,0.44-3.7c0.26-1.21,0.66-2.36,1.2-3.48
			c0.53-1.11,1.28-2.16,2.23-3.14c1.53-1.53,3.29-2.59,5.26-3.21c1.97-0.61,3.99-0.91,6.04-0.91c2.15,0,4.2,0.3,6.15,0.91
			c1.93,0.61,3.68,1.68,5.22,3.21c0.98,0.92,1.74,1.94,2.27,3.09c0.54,1.14,0.93,2.32,1.18,3.52c0.25,1.2,0.4,2.44,0.47,3.7
			c0.06,1.26,0.09,2.52,0.09,3.8V545.89z M367.99,505.05l-3.23-3.38l-3.08,3.38h-8.42l6.31-8.92h10.53l6.32,8.92H367.99z
			 M370.78,529.82c0-1.08-0.07-2.16-0.2-3.25c-0.13-1.1-0.4-2.07-0.81-2.94c-0.41-0.86-1-1.57-1.81-2.11
			c-0.8-0.54-1.86-0.81-3.2-0.81c-1.34,0-2.39,0.29-3.15,0.86c-0.77,0.57-1.35,1.3-1.74,2.16c-0.39,0.86-0.66,1.83-0.81,2.88
			c-0.15,1.06-0.22,2.13-0.22,3.21v16.56c0,1.08,0.07,2.14,0.22,3.2c0.15,1.07,0.42,2.04,0.81,2.91c0.39,0.89,0.97,1.6,1.74,2.15
			c0.77,0.56,1.81,0.84,3.15,0.84c1.34,0,2.4-0.26,3.2-0.79c0.81-0.52,1.4-1.22,1.81-2.09c0.41-0.88,0.68-1.88,0.81-2.97
			c0.13-1.09,0.2-2.18,0.2-3.25V529.82z M360.59,577.81v-8.92h8.71v8.92H360.59z"/>
		<path class="st0" d="M409.02,563.02v-36.48c0-0.69-0.02-1.36-0.04-2.03c-0.03-0.66-0.17-1.29-0.42-1.86
			c-0.24-0.57-0.6-1.03-1.1-1.39c-0.5-0.36-1.18-0.55-2.06-0.55c-1.53,0-2.96,0.55-4.25,1.64c-1.3,1.1-2.38,2.22-3.23,3.36v37.31
			h-9.45v-49.84h9.45v6.41c1.67-1.93,3.46-3.58,5.39-4.95c1.92-1.37,4.23-2.06,6.9-2.06c1.7,0,3.08,0.33,4.14,1.01
			c1.06,0.66,1.89,1.53,2.5,2.58c0.61,1.07,1.01,2.29,1.2,3.71c0.2,1.4,0.29,2.81,0.29,4.2v38.93H409.02z"/>
		<path class="st0" d="M462.64,522.62c-0.88-0.81-1.96-1.22-3.23-1.22c-0.85,0-1.53,0.13-2.03,0.39c-0.51,0.26-1.02,0.77-1.55,1.52
			c0.65,2.61,0.97,5.32,0.97,8.13c0,2.55-0.25,4.97-0.76,7.28c-0.51,2.29-1.32,4.33-2.45,6.12c-1.13,1.78-2.66,3.2-4.6,4.26
			c-1.93,1.06-4.35,1.59-7.22,1.59c-0.59,0-1.18-0.03-1.79-0.1c-0.6-0.06-1.21-0.16-1.84-0.29c-0.52,0.33-1.02,0.72-1.49,1.15
			c-0.47,0.44-0.71,1.03-0.71,1.75c0,1.08,0.65,1.78,1.95,2.12c1.31,0.34,2.93,0.55,4.87,0.61c1.95,0.07,4.03,0.18,6.27,0.34
			c2.23,0.16,4.32,0.63,6.26,1.39c1.94,0.77,3.56,1.99,4.88,3.65c1.3,1.66,1.95,4.05,1.95,7.15c0,2.74-0.64,4.93-1.9,6.57
			c-1.28,1.62-2.89,2.88-4.83,3.74c-1.94,0.86-4.07,1.41-6.41,1.64c-2.33,0.23-4.58,0.35-6.73,0.35c-1.53,0-3.29-0.08-5.27-0.25
			c-1.97-0.16-3.84-0.55-5.6-1.16c-1.76-0.6-3.26-1.5-4.51-2.68c-1.24-1.2-1.86-2.84-1.86-4.92c0-1.21,0.22-2.25,0.66-3.11
			c0.44-0.86,1.03-1.61,1.76-2.25c0.73-0.64,1.56-1.19,2.5-1.67c0.93-0.48,1.9-0.87,2.92-1.2c-1.61-0.65-2.98-1.41-4.12-2.28
			c-1.14-0.86-1.71-2.28-1.71-4.23c0-2.42,0.78-4.16,2.35-5.22c1.57-1.07,3.36-1.91,5.39-2.53c-1.76-0.91-3.17-2-4.23-3.28
			c-1.06-1.27-1.9-2.66-2.5-4.16c-0.61-1.5-1.02-3.12-1.25-4.86c-0.22-1.75-0.34-3.52-0.34-5.31c0-2.62,0.25-5.07,0.74-7.37
			c0.49-2.31,1.33-4.33,2.54-6.08c1.21-1.74,2.78-3.12,4.72-4.11c1.94-0.99,4.38-1.49,7.32-1.49c2.81,0,5.15,0.46,7.03,1.39
			c1.88,0.93,3.58,2.57,5.12,4.92c0.78-2.42,1.79-4.05,3.02-4.92c1.25-0.86,3.14-1.29,5.69-1.29V522.62z M453.34,568.65
			c0-0.95-0.31-1.67-0.91-2.18c-0.61-0.51-1.35-0.88-2.23-1.1c-0.88-0.23-1.78-0.36-2.72-0.39c-0.92-0.03-1.72-0.05-2.37-0.05
			l-3.13-0.1c-0.78-0.06-1.6-0.13-2.45-0.19c-0.85-0.06-1.67-0.13-2.45-0.19c-0.69,0.52-1.27,1.15-1.77,1.89
			c-0.49,0.73-0.73,1.54-0.73,2.42c0,1.08,0.35,1.89,1.05,2.45c0.7,0.56,1.54,0.96,2.5,1.21c0.97,0.24,1.96,0.38,2.99,0.41
			c1.03,0.03,1.91,0.05,2.66,0.05c0.66,0,1.53-0.02,2.64-0.05c1.11-0.04,2.17-0.19,3.16-0.47c1-0.28,1.87-0.7,2.62-1.27
			C452.96,570.51,453.34,569.7,453.34,568.65z M447.31,528.85c0-1.01-0.07-2-0.21-2.96c-0.15-0.96-0.44-1.84-0.87-2.63
			c-0.42-0.78-1-1.41-1.74-1.86c-0.73-0.46-1.7-0.68-2.91-0.68c-1.21,0-2.18,0.23-2.91,0.68c-0.74,0.45-1.31,1.08-1.72,1.86
			c-0.41,0.79-0.68,1.66-0.81,2.63c-0.13,0.96-0.2,1.95-0.2,2.96v5.48c0,1.01,0.06,2,0.2,2.96c0.12,0.97,0.39,1.83,0.81,2.59
			c0.41,0.77,0.98,1.4,1.72,1.86c0.73,0.48,1.7,0.71,2.91,0.71c1.21,0,2.18-0.24,2.91-0.71c0.74-0.46,1.32-1.09,1.74-1.86
			c0.43-0.76,0.72-1.62,0.87-2.59c0.14-0.96,0.21-1.95,0.21-2.96V528.85z"/>
		<path class="st0" d="M529.39,542.16c0,6.7-1.49,11.85-4.46,15.46c-2.98,3.61-7.93,5.41-14.89,5.41h-16.35v-30.16h-2.3v-9.55h2.3
			v-27.18h16.35c6.95,0,11.91,1.82,14.89,5.45c2.97,3.65,4.46,8.82,4.46,15.51V542.16z M519.05,519.89c0-1.87-0.1-3.66-0.29-5.39
			c-0.2-1.72-0.63-3.25-1.3-4.55c-0.67-1.3-1.67-2.34-3.02-3.11c-1.34-0.76-3.15-1.15-5.43-1.15h-5v17.63h7.74v9.55h-7.74v20.62h5
			c2.28,0,4.09-0.38,5.43-1.15c1.34-0.77,2.34-1.81,3.02-3.11c0.66-1.3,1.1-2.81,1.3-4.5c0.19-1.7,0.29-3.51,0.29-5.44V519.89z"/>
		<path class="st0" d="M568.36,545.89c0,2.62-0.19,5.13-0.56,7.56c-0.39,2.44-1.54,4.63-3.46,6.58c-1.53,1.54-3.28,2.59-5.26,3.14
			c-1.98,0.56-4.01,0.84-6.1,0.84c-2.12,0-4.15-0.3-6.1-0.89c-1.94-0.58-3.68-1.62-5.21-3.09c-1.96-1.82-3.11-4-3.43-6.53
			c-0.33-2.53-0.49-5.07-0.49-7.61v-15.47c0-1.28,0.02-2.54,0.05-3.8c0.03-1.26,0.18-2.49,0.44-3.7c0.26-1.21,0.66-2.36,1.2-3.48
			c0.54-1.11,1.28-2.16,2.23-3.14c1.53-1.53,3.29-2.59,5.26-3.21c1.98-0.61,3.99-0.91,6.05-0.91c2.15,0,4.2,0.3,6.14,0.91
			c1.94,0.61,3.69,1.68,5.21,3.21c0.99,0.92,1.74,1.94,2.28,3.09c0.54,1.14,0.93,2.32,1.18,3.52c0.24,1.2,0.39,2.44,0.46,3.7
			c0.06,1.26,0.1,2.52,0.1,3.8V545.89z M556.21,505.05l-3.23-3.38l-3.08,3.38h-8.42l6.32-8.92h10.53l6.32,8.92H556.21z
			 M550.69,493.79l-7.2-8.92h9.6l4.65,8.92H550.69z M559.01,529.82c0-1.08-0.06-2.16-0.2-3.25c-0.13-1.1-0.39-2.07-0.8-2.94
			c-0.41-0.86-1.01-1.57-1.81-2.11c-0.8-0.54-1.88-0.81-3.21-0.81c-1.34,0-2.39,0.29-3.16,0.86c-0.77,0.57-1.34,1.3-1.73,2.16
			c-0.4,0.86-0.66,1.83-0.81,2.88c-0.15,1.06-0.23,2.13-0.23,3.21v16.56c0,1.08,0.07,2.14,0.23,3.2c0.15,1.07,0.41,2.04,0.81,2.91
			c0.39,0.89,0.96,1.6,1.73,2.15c0.77,0.56,1.82,0.84,3.16,0.84c1.33,0,2.41-0.26,3.21-0.79c0.8-0.52,1.4-1.22,1.81-2.09
			c0.41-0.88,0.67-1.88,0.8-2.97c0.14-1.09,0.2-2.18,0.2-3.25V529.82z"/>
		<path class="st0" d="M597.25,563.02v-36.48c0-0.69-0.02-1.36-0.05-2.03c-0.03-0.66-0.17-1.29-0.42-1.86
			c-0.23-0.57-0.6-1.03-1.1-1.39c-0.49-0.36-1.17-0.55-2.05-0.55c-1.54,0-2.96,0.55-4.26,1.64c-1.3,1.1-2.38,2.22-3.23,3.36v37.31
			h-9.45v-49.84h9.45v6.41c1.66-1.93,3.46-3.58,5.38-4.95c1.92-1.37,4.24-2.06,6.91-2.06c1.7,0,3.07,0.33,4.13,1.01
			c1.06,0.66,1.88,1.53,2.5,2.58c0.6,1.07,1,2.29,1.2,3.71c0.2,1.4,0.29,2.81,0.29,4.2v38.93H597.25z"/>
		<path class="st0" d="M650.87,522.62c-0.88-0.81-1.95-1.22-3.23-1.22c-0.85,0-1.53,0.13-2.03,0.39c-0.51,0.26-1.02,0.77-1.55,1.52
			c0.66,2.61,0.98,5.32,0.98,8.13c0,2.55-0.26,4.97-0.76,7.28c-0.5,2.29-1.32,4.33-2.44,6.12c-1.12,1.78-2.67,3.2-4.61,4.26
			c-1.94,1.06-4.35,1.59-7.21,1.59c-0.59,0-1.19-0.03-1.79-0.1c-0.6-0.06-1.22-0.16-1.84-0.29c-0.53,0.33-1.02,0.72-1.49,1.15
			c-0.47,0.44-0.71,1.03-0.71,1.75c0,1.08,0.66,1.78,1.95,2.12c1.31,0.34,2.94,0.55,4.88,0.61c1.94,0.07,4.03,0.18,6.26,0.34
			c2.24,0.16,4.33,0.63,6.27,1.39c1.94,0.77,3.58,1.99,4.87,3.65c1.31,1.66,1.96,4.05,1.96,7.15c0,2.74-0.63,4.93-1.91,6.57
			c-1.26,1.62-2.87,2.88-4.82,3.74c-1.94,0.86-4.07,1.41-6.41,1.64c-2.32,0.23-4.57,0.35-6.73,0.35c-1.53,0-3.29-0.08-5.26-0.25
			c-1.98-0.16-3.84-0.55-5.61-1.16c-1.76-0.6-3.27-1.5-4.5-2.68c-1.24-1.2-1.87-2.84-1.87-4.92c0-1.21,0.23-2.25,0.66-3.11
			c0.45-0.86,1.04-1.61,1.76-2.25c0.74-0.64,1.58-1.19,2.5-1.67c0.93-0.48,1.9-0.87,2.91-1.2c-1.6-0.65-2.97-1.41-4.12-2.28
			c-1.14-0.86-1.7-2.28-1.7-4.23c0-2.42,0.78-4.16,2.35-5.22c1.57-1.07,3.36-1.91,5.39-2.53c-1.76-0.91-3.18-2-4.24-3.28
			c-1.06-1.27-1.89-2.66-2.5-4.16c-0.6-1.5-1.01-3.12-1.25-4.86c-0.22-1.75-0.34-3.52-0.34-5.31c0-2.62,0.25-5.07,0.74-7.37
			c0.49-2.31,1.34-4.33,2.54-6.08c1.21-1.74,2.78-3.12,4.72-4.11c1.94-0.99,4.38-1.49,7.33-1.49c2.8,0,5.15,0.46,7.03,1.39
			c1.88,0.93,3.58,2.57,5.11,4.92c0.78-2.42,1.8-4.05,3.04-4.92c1.24-0.86,3.13-1.29,5.68-1.29V522.62z M641.56,568.65
			c0-0.95-0.3-1.67-0.9-2.18c-0.61-0.51-1.36-0.88-2.23-1.1c-0.89-0.23-1.79-0.36-2.72-0.39c-0.93-0.03-1.72-0.05-2.37-0.05
			l-3.14-0.1c-0.77-0.06-1.59-0.13-2.44-0.19c-0.85-0.06-1.67-0.13-2.46-0.19c-0.68,0.52-1.27,1.15-1.76,1.89
			c-0.48,0.73-0.73,1.54-0.73,2.42c0,1.08,0.35,1.89,1.05,2.45c0.71,0.56,1.54,0.96,2.5,1.21c0.97,0.24,1.96,0.38,2.98,0.41
			c1.03,0.03,1.92,0.05,2.68,0.05c0.65,0,1.53-0.02,2.63-0.05c1.12-0.04,2.17-0.19,3.16-0.47c1.01-0.28,1.87-0.7,2.62-1.27
			C641.19,570.51,641.56,569.7,641.56,568.65z M635.54,528.85c0-1.01-0.07-2-0.22-2.96c-0.15-0.96-0.43-1.84-0.86-2.63
			c-0.42-0.78-1-1.41-1.74-1.86c-0.74-0.46-1.71-0.68-2.91-0.68c-1.21,0-2.18,0.23-2.91,0.68c-0.74,0.45-1.31,1.08-1.72,1.86
			c-0.4,0.79-0.68,1.66-0.81,2.63c-0.13,0.96-0.19,1.95-0.19,2.96v5.48c0,1.01,0.06,2,0.19,2.96c0.13,0.97,0.41,1.83,0.81,2.59
			c0.41,0.77,0.97,1.4,1.72,1.86c0.74,0.48,1.7,0.71,2.91,0.71c1.21,0,2.17-0.24,2.91-0.71c0.73-0.46,1.32-1.09,1.74-1.86
			c0.43-0.76,0.71-1.62,0.86-2.59c0.15-0.96,0.22-1.95,0.22-2.96V528.85z"/>
		<path class="st0" d="M700.48,505.68v57.34h-10.34v-57.34h-12.93v-9.55h36.29v9.55H700.48z"/>
		<path class="st0" d="M739.01,563.02v-36.48c0-0.69-0.01-1.36-0.05-2.03c-0.02-0.66-0.16-1.29-0.41-1.86
			c-0.24-0.57-0.61-1.03-1.1-1.39c-0.48-0.36-1.17-0.55-2.06-0.55c-1.53,0-2.95,0.55-4.25,1.64c-1.31,1.1-2.38,2.22-3.23,3.36v37.31
			h-9.46v-66.89h9.46v23.46c1.65-1.93,3.46-3.58,5.38-4.95c1.92-1.37,4.23-2.06,6.9-2.06c1.7,0,3.08,0.33,4.13,1.01
			c1.07,0.66,1.9,1.53,2.51,2.58c0.6,1.07,1,2.29,1.19,3.71c0.2,1.4,0.29,2.81,0.29,4.2v38.93H739.01z"/>
		<path class="st0" d="M757.01,505.88v-9.75h9.46v9.75H757.01z M757.01,563.02v-49.84h9.46v49.84H757.01z M757.51,577.81v-8.92h8.72
			v8.92H757.51z"/>
		<path class="st0" d="M795.61,563.02v-36.48c0-0.69-0.01-1.36-0.05-2.03c-0.04-0.66-0.17-1.29-0.42-1.86
			c-0.24-0.57-0.61-1.03-1.1-1.39c-0.49-0.36-1.18-0.55-2.06-0.55c-1.53,0-2.95,0.55-4.26,1.64c-1.3,1.1-2.38,2.22-3.23,3.36v37.31
			h-9.45v-49.84h9.45v6.41c1.65-1.93,3.46-3.58,5.38-4.95c1.93-1.37,4.24-2.06,6.9-2.06c1.71,0,3.09,0.33,4.14,1.01
			c1.06,0.66,1.89,1.53,2.51,2.58c0.6,1.07,0.99,2.29,1.18,3.71c0.2,1.4,0.3,2.81,0.3,4.2v38.93H795.61z"/>
		<path class="st0" d="M834.2,563.02v-36.48c0-0.69-0.02-1.36-0.05-2.03c-0.04-0.66-0.17-1.29-0.42-1.86
			c-0.25-0.57-0.62-1.03-1.1-1.39c-0.49-0.36-1.18-0.55-2.05-0.55c-1.55,0-2.95,0.55-4.26,1.64c-1.3,1.1-2.39,2.22-3.23,3.36v37.31
			h-9.46v-66.89h9.46v23.46c1.66-1.93,3.46-3.58,5.37-4.95c1.94-1.37,4.24-2.06,6.92-2.06c1.7,0,3.08,0.33,4.13,1.01
			c1.06,0.66,1.9,1.53,2.5,2.58c0.6,1.07,0.99,2.29,1.2,3.71c0.2,1.4,0.3,2.81,0.3,4.2v38.93H834.2z"/>
		<path class="st0" d="M901.81,563.02H889l-14.36-66.89h10.63l10.14,50.83l8.81-50.83h10.43L901.81,563.02z"/>
		<path class="st0" d="M950.54,519.74v43.28h-9.3v-6.41c-1.6,1.92-3.4,3.58-5.41,4.99c-2.01,1.4-4.31,2.11-6.93,2.11
			c-1.73,0-3.13-0.34-4.21-1c-1.06-0.67-1.92-1.54-2.51-2.6c-0.6-1.07-1.01-2.29-1.2-3.7c-0.19-1.4-0.29-2.8-0.29-4.2v-39.03h9.45
			v36.53c0,0.66,0.02,1.31,0.04,1.97c0.04,0.68,0.17,1.29,0.39,1.87c0.22,0.57,0.58,1.04,1.05,1.4c0.46,0.35,1.13,0.54,1.97,0.54
			c1.54,0,2.97-0.53,4.31-1.59c1.34-1.05,2.46-2.19,3.34-3.4v-37.31h8.23l0.63-2.01h-3.48v-8.28h7.5v8.28L950.54,519.74z"/>
		<path class="st0" d="M987.52,518.86c0.1,0.16,0.2,0.34,0.29,0.54c0.52,1.14,0.9,2.32,1.13,3.52c0.23,1.2,0.38,2.44,0.46,3.7
			c0.08,1.26,0.12,2.52,0.12,3.8v15.47c0,2.62-0.19,5.13-0.56,7.56c-0.37,2.44-1.53,4.63-3.45,6.58c-1.53,1.54-3.29,2.59-5.27,3.14
			c-1.97,0.56-4.01,0.84-6.09,0.84c-2.13,0-4.15-0.3-6.11-0.89c-1.94-0.58-3.68-1.62-5.21-3.09c-1.96-1.82-3.1-4-3.42-6.53
			c-0.33-2.53-0.5-5.07-0.5-7.61v-15.47c0-1.28,0.02-2.54,0.06-3.8c0.02-1.26,0.17-2.49,0.44-3.7c0.25-1.21,0.65-2.36,1.19-3.48
			c0.54-1.11,1.28-2.16,2.23-3.14c1.53-1.53,3.29-2.59,5.27-3.21c1.97-0.61,3.99-0.91,6.05-0.91c2.15,0,4.21,0.29,6.16,0.88
			c1.76,0.56,3.36,1.52,4.8,2.89l1.56-4.8h-3.47v-8.28h7.49v8.28L987.52,518.86z M980.16,529.82c0-1.08-0.06-2.16-0.19-3.25
			c-0.12-1.1-0.39-2.07-0.8-2.94c-0.41-0.86-1.01-1.57-1.82-2.11c-0.8-0.54-1.87-0.81-3.2-0.81c-1.34,0-2.4,0.29-3.16,0.86
			c-0.76,0.57-1.34,1.3-1.74,2.16c-0.39,0.86-0.66,1.83-0.81,2.88c-0.14,1.06-0.22,2.13-0.22,3.21v16.56c0,1.08,0.08,2.14,0.22,3.2
			c0.15,1.07,0.42,2.04,0.81,2.91c0.39,0.89,0.97,1.6,1.74,2.15c0.76,0.56,1.82,0.84,3.16,0.84c1.33,0,2.4-0.26,3.2-0.79
			c0.81-0.52,1.4-1.22,1.82-2.09c0.4-0.88,0.67-1.88,0.8-2.97c0.13-1.09,0.19-2.18,0.19-3.25V529.82z M969.99,577.81v-8.92h8.71
			v8.92H969.99z"/>
		<path class="st0" d="M1018.41,563.02v-36.48c0-0.69-0.02-1.36-0.04-2.03c-0.04-0.66-0.17-1.29-0.42-1.86
			c-0.25-0.57-0.6-1.03-1.09-1.39c-0.51-0.36-1.19-0.55-2.07-0.55c-1.54,0-2.95,0.55-4.25,1.64c-1.31,1.1-2.39,2.22-3.24,3.36v37.31
			h-9.45v-49.84h9.45v6.41c1.67-1.93,3.46-3.58,5.39-4.95c1.92-1.37,4.22-2.06,6.9-2.06c1.7,0,3.08,0.33,4.13,1.01
			c1.07,0.66,1.9,1.53,2.51,2.58c0.6,1.07,0.99,2.29,1.18,3.71c0.21,1.4,0.3,2.81,0.3,4.2v38.93H1018.41z"/>
		<path class="st0" d="M1072.02,522.62c-0.88-0.81-1.95-1.22-3.22-1.22c-0.86,0-1.53,0.13-2.04,0.39c-0.51,0.26-1.02,0.77-1.55,1.52
			c0.66,2.61,0.98,5.32,0.98,8.13c0,2.55-0.25,4.97-0.75,7.28c-0.51,2.29-1.32,4.33-2.45,6.12c-1.13,1.78-2.67,3.2-4.6,4.26
			c-1.94,1.06-4.36,1.59-7.23,1.59c-0.59,0-1.18-0.03-1.79-0.1c-0.61-0.06-1.21-0.16-1.84-0.29c-0.52,0.33-1.02,0.72-1.5,1.15
			c-0.48,0.44-0.7,1.03-0.7,1.75c0,1.08,0.65,1.78,1.95,2.12c1.3,0.34,2.93,0.55,4.87,0.61c1.94,0.07,4.03,0.18,6.27,0.34
			c2.23,0.16,4.32,0.63,6.26,1.39c1.93,0.77,3.56,1.99,4.87,3.65c1.3,1.66,1.95,4.05,1.95,7.15c0,2.74-0.64,4.93-1.91,6.57
			c-1.27,1.62-2.89,2.88-4.82,3.74c-1.93,0.86-4.07,1.41-6.41,1.64c-2.35,0.23-4.59,0.35-6.74,0.35c-1.53,0-3.28-0.08-5.26-0.25
			c-1.97-0.16-3.85-0.55-5.6-1.16c-1.76-0.6-3.26-1.5-4.51-2.68c-1.23-1.2-1.86-2.84-1.86-4.92c0-1.21,0.21-2.25,0.66-3.11
			c0.43-0.86,1.02-1.61,1.76-2.25c0.73-0.64,1.56-1.19,2.5-1.67c0.93-0.48,1.91-0.87,2.9-1.2c-1.59-0.65-2.96-1.41-4.11-2.28
			c-1.14-0.86-1.7-2.28-1.7-4.23c0-2.42,0.78-4.16,2.34-5.22c1.57-1.07,3.35-1.91,5.39-2.53c-1.76-0.91-3.17-2-4.24-3.28
			c-1.05-1.27-1.89-2.66-2.5-4.16c-0.61-1.5-1.01-3.12-1.25-4.86c-0.23-1.75-0.34-3.52-0.34-5.31c0-2.62,0.24-5.07,0.73-7.37
			c0.49-2.31,1.34-4.33,2.54-6.08c1.21-1.74,2.78-3.12,4.74-4.11c1.94-0.99,4.36-1.49,7.31-1.49c2.81,0,5.15,0.46,7.03,1.39
			c1.88,0.93,3.57,2.57,5.11,4.92c0.79-2.42,1.79-4.05,3.03-4.92c1.24-0.86,3.14-1.29,5.68-1.29V522.62z M1062.73,568.65
			c0-0.95-0.3-1.67-0.91-2.18c-0.61-0.51-1.36-0.88-2.22-1.1c-0.89-0.23-1.8-0.36-2.72-0.39c-0.94-0.03-1.73-0.05-2.37-0.05
			l-3.14-0.1c-0.78-0.06-1.6-0.13-2.44-0.19c-0.85-0.06-1.67-0.13-2.45-0.19c-0.69,0.52-1.28,1.15-1.77,1.89
			c-0.49,0.73-0.73,1.54-0.73,2.42c0,1.08,0.35,1.89,1.05,2.45c0.7,0.56,1.53,0.96,2.5,1.21c0.96,0.24,1.95,0.38,2.99,0.41
			c1.03,0.03,1.92,0.05,2.67,0.05c0.66,0,1.54-0.02,2.65-0.05c1.11-0.04,2.16-0.19,3.16-0.47c1-0.28,1.87-0.7,2.62-1.27
			C1062.35,570.51,1062.73,569.7,1062.73,568.65z M1056.7,528.85c0-1.01-0.08-2-0.21-2.96c-0.16-0.96-0.44-1.84-0.86-2.63
			c-0.42-0.78-1.01-1.41-1.74-1.86c-0.74-0.46-1.71-0.68-2.91-0.68c-1.21,0-2.19,0.23-2.92,0.68c-0.74,0.45-1.31,1.08-1.71,1.86
			c-0.41,0.79-0.68,1.66-0.81,2.63c-0.12,0.96-0.19,1.95-0.19,2.96v5.48c0,1.01,0.06,2,0.19,2.96c0.13,0.97,0.4,1.83,0.81,2.59
			c0.4,0.77,0.97,1.4,1.71,1.86c0.73,0.48,1.71,0.71,2.92,0.71c1.2,0,2.17-0.24,2.91-0.71c0.73-0.46,1.32-1.09,1.74-1.86
			c0.42-0.76,0.7-1.62,0.86-2.59c0.13-0.96,0.21-1.95,0.21-2.96V528.85z"/>
	</g>
</g>
</svg>
